<!-- [SECURE ASSET ID: GMPH2007-SEC-2026-X09] (C) 2024-2026 GERSON MISAEL PINTADO HUAMAN. PROPRIETARY & CONFIDENTIAL. UNAUTHORIZED REVERSE ENGINEERING, CLONING OR REDISTRIBUTION IS STRICTLY PROHIBITED UNDER INTERNATIONAL COPYRIGHT LAW. -->
<svg xmlns="http://www.w3.org/2000/svg" viewBox="0 0 850 360" width="100%" height="100%"><defs><linearGradient id="vaultBg" x1="0%" y1="0%" x2="100%" y2="100%"><stop offset="0%" stop-color="#060914"/><stop offset="50%" stop-color="#0e0a24"/><stop offset="100%" stop-color="#04060f"/></linearGradient><linearGradient id="vaultBorder" x1="0%" y1="0%" x2="100%" y2="100%"><stop offset="0%" stop-color="#ffb703"/><stop offset="25%" stop-color="#ff007f"/><stop offset="50%" stop-color="#00f3ff"/><stop offset="75%" stop-color="#00ff9d"/><stop offset="100%" stop-color="#ffb703"/></linearGradient><linearGradient id="shineBar" x1="0%" y1="0%" x2="100%" y2="0%"><stop offset="0%" stop-color="white" stop-opacity="0"/><stop offset="50%" stop-color="white" stop-opacity="0.3"/><stop offset="100%" stop-color="white" stop-opacity="0"/></linearGradient><filter id="glowGold" x="-20%" y="-20%" width="140%" height="140%"><feGaussianBlur stdDeviation="3" result="blur"/><feMerge><feMergeNode in="blur"/><feMergeNode in="SourceGraphic"/></feMerge></filter></defs><style> @keyframes shinePass { 0% { transform: translateX(-500px) skewX(-25deg); } 50%, 100% { transform: translateX(1200px) skewX(-25deg); } } @keyframes vaultGlow { 0%, 100% { filter: drop-shadow(0 0 10px rgba(255, 183, 3, 0.4)); } 50% { filter: drop-shadow(0 0 25px rgba(0, 243, 255, 0.6)); } } @keyframes medalFloat1 { 0%, 100% { transform: translateY(0px); } 50% { transform: translateY(-4px); } } @keyframes medalFloat2 { 0%, 100% { transform: translateY(0px); } 50% { transform: translateY(-5px); } } .vault-card { animation: vaultGlow 6s ease-in-out infinite; } .shine-sweep { animation: shinePass 5s ease-in-out infinite; } .f1 { animation: medalFloat1 3s ease-in-out infinite; } .f2 { animation: medalFloat2 3.5s ease-in-out infinite; } .font-sans { font-family: 'Segoe UI', -apple-system, BlinkMacSystemFont, sans-serif; } .font-mono { font-family: 'Fira Code', 'Cascadia Code', monospace; } </style><g class="vault-card"><rect x="2" y="2" width="846" height="356" rx="16" fill="url(#vaultBg)" stroke="url(#vaultBorder)" stroke-width="2"/><g opacity="0.6"><rect x="0" y="2" width="140" height="356" fill="url(#shineBar)" class="shine-sweep"/></g><g transform="translate(26, 32)"><circle cx="6" cy="-4" r="5" fill="#ffb703" filter="url(#glowGold)"/><text x="20" y="1" class="font-sans" font-size="16" font-weight="900" fill="#ffffff" letter-spacing="0.5"> 🏛️ GITHUB HALL OF FAME // LEGACY &amp; OFFICIAL ELITE AWARDS </text><rect x="635" y="-14" width="155" height="22" rx="11" fill="#ffb703" fill-opacity="0.15" stroke="#ffb703" stroke-width="1"/><text x="712" y="1" text-anchor="middle" class="font-mono" font-size="10" font-weight="bold" fill="#ffb703" letter-spacing="1"> HONOR ROLL 2026 </text></g><line x1="26" y1="46" x2="824" y2="46" stroke="#1e293b" stroke-width="1.2"/><g transform="translate(26, 62)" class="font-sans"><g transform="translate(0, 0)" class="f1"><rect width="190" height="128" rx="12" fill="#081022" stroke="#00f3ff" stroke-width="1.4"/><circle cx="35" cy="35" r="20" fill="#00f3ff" fill-opacity="0.15" stroke="#00f3ff" stroke-width="1"/><text x="35" y="42" text-anchor="middle" font-size="20">❄️</text><text x="65" y="32" font-size="12.5" font-weight="900" fill="#00f3ff">Arctic Vault</text><text x="65" y="48" class="font-mono" font-size="9" font-weight="bold" fill="#38bdf8">LEGACY 2020</text><rect x="15" y="70" width="160" height="46" rx="6" fill="#050a17"/><text x="24" y="88" font-size="10" fill="#cbd5e1">1,000-Yr Code Archive</text><text x="24" y="104" class="font-mono" font-size="9" font-weight="bold" fill="#00ff9d">SVALBARD VAULT</text></g><g transform="translate(204, 0)" class="f2"><rect width="190" height="128" rx="12" fill="#081022" stroke="#ffb703" stroke-width="1.4"/><circle cx="35" cy="35" r="20" fill="#ffb703" fill-opacity="0.15" stroke="#ffb703" stroke-width="1"/><text x="35" y="42" text-anchor="middle" font-size="20">🦈</text><text x="65" y="32" font-size="12.5" font-weight="900" fill="#ffb703">Pull Shark x3</text><text x="65" y="48" class="font-mono" font-size="9" font-weight="bold" fill="#ffb703">GOLD TIER</text><rect x="15" y="70" width="160" height="46" rx="6" fill="#050a17"/><text x="24" y="88" font-size="10" fill="#cbd5e1">Multi-PR Merged Pro</text><text x="24" y="104" class="font-mono" font-size="9" font-weight="bold" fill="#ffb703">ELITE MERGE PRO</text></g><g transform="translate(408, 0)" class="f1"><rect width="190" height="128" rx="12" fill="#081022" stroke="#ff007f" stroke-width="1.4"/><circle cx="35" cy="35" r="20" fill="#ff007f" fill-opacity="0.15" stroke="#ff007f" stroke-width="1"/><text x="35" y="42" text-anchor="middle" font-size="20">⚡</text><text x="65" y="32" font-size="12.5" font-weight="900" fill="#ff007f">Quickdraw</text><text x="65" y="48" class="font-mono" font-size="9" font-weight="bold" fill="#ff007f">SPEED CHAMPION</text><rect x="15" y="70" width="160" height="46" rx="6" fill="#050a17"/><text x="24" y="88" font-size="10" fill="#cbd5e1">Issue Solved &lt; 5 Min</text><text x="24" y="104" class="font-mono" font-size="9" font-weight="bold" fill="#ff007f">ULTRA VELOCITY</text></g><g transform="translate(612, 0)" class="f2"><rect width="186" height="128" rx="12" fill="#081022" stroke="#a855f7" stroke-width="1.4"/><circle cx="35" cy="35" r="20" fill="#a855f7" fill-opacity="0.15" stroke="#a855f7" stroke-width="1"/><text x="35" y="42" text-anchor="middle" font-size="20">🪐</text><text x="65" y="32" font-size="12.5" font-weight="900" fill="#c084fc">YOLO Pioneer</text><text x="65" y="48" class="font-mono" font-size="9" font-weight="bold" fill="#c084fc">DIRECT DEPLOY</text><rect x="15" y="70" width="156" height="46" rx="6" fill="#050a17"/><text x="24" y="88" font-size="10" fill="#cbd5e1">Merged Without Review</text><text x="24" y="104" class="font-mono" font-size="9" font-weight="bold" fill="#c084fc">BOLD PROTOCOL</text></g></g><g transform="translate(26, 204)" class="font-sans"><g transform="translate(0, 0)" class="f2"><rect width="190" height="128" rx="12" fill="#081022" stroke="#00ff9d" stroke-width="1.4"/><circle cx="35" cy="35" r="20" fill="#00ff9d" fill-opacity="0.15" stroke="#00ff9d" stroke-width="1"/><text x="35" y="42" text-anchor="middle" font-size="20">👥</text><text x="65" y="32" font-size="12" font-weight="900" fill="#00ff9d">Pair Extraord.</text><text x="65" y="48" class="font-mono" font-size="9" font-weight="bold" fill="#00ff9d">CO-AUTHOR PRO</text><rect x="15" y="70" width="160" height="46" rx="6" fill="#050a17"/><text x="24" y="88" font-size="10" fill="#cbd5e1">Team Synergy Commits</text><text x="24" y="104" class="font-mono" font-size="9" font-weight="bold" fill="#00ff9d">CO-AUTHOR MATRIX</text></g><g transform="translate(204, 0)" class="f1"><rect width="190" height="128" rx="12" fill="#081022" stroke="#38bdf8" stroke-width="1.4"/><circle cx="35" cy="35" r="20" fill="#38bdf8" fill-opacity="0.15" stroke="#38bdf8" stroke-width="1"/><text x="35" y="42" text-anchor="middle" font-size="20">🧠</text><text x="65" y="32" font-size="12" font-weight="900" fill="#38bdf8">Galaxy Brain</text><text x="65" y="48" class="font-mono" font-size="9" font-weight="bold" fill="#38bdf8">CORE ARCHITECT</text><rect x="15" y="70" width="160" height="46" rx="6" fill="#050a17"/><text x="24" y="88" font-size="10" fill="#cbd5e1">Technical Solutions</text><text x="24" y="104" class="font-mono" font-size="9" font-weight="bold" fill="#38bdf8">MASTER MIND</text></g><g transform="translate(408, 0)" class="f2"><rect width="190" height="128" rx="12" fill="#081022" stroke="#ffb703" stroke-width="1.4"/><circle cx="35" cy="35" r="20" fill="#ffb703" fill-opacity="0.15" stroke="#ffb703" stroke-width="1"/><text x="35" y="42" text-anchor="middle" font-size="20">🎖️</text><text x="65" y="32" font-size="12" font-weight="900" fill="#ffb703">Dev Program</text><text x="65" y="48" class="font-mono" font-size="9" font-weight="bold" fill="#ffb703">REGISTERED DEV</text><rect x="15" y="70" width="160" height="46" rx="6" fill="#050a17"/><text x="24" y="88" font-size="10" fill="#cbd5e1">API &amp; App Builder</text><text x="24" y="104" class="font-mono" font-size="9" font-weight="bold" fill="#ffb703">OFFICIAL STATUS</text></g><g transform="translate(612, 0)" class="f1"><rect width="186" height="128" rx="12" fill="#081022" stroke="#ff0055" stroke-width="1.4"/><circle cx="35" cy="35" r="20" fill="#ff0055" fill-opacity="0.15" stroke="#ff0055" stroke-width="1"/><text x="35" y="42" text-anchor="middle" font-size="20">🛡️</text><text x="65" y="32" font-size="12" font-weight="900" fill="#ff0055">Cyber Sentinel</text><text x="65" y="48" class="font-mono" font-size="9" font-weight="bold" fill="#ff0055">SECURITY MASTER</text><rect x="15" y="70" width="156" height="46" rx="6" fill="#050a17"/><text x="24" y="88" font-size="10" fill="#cbd5e1">SHA-256 + JWT Defense</text><text x="24" y="104" class="font-mono" font-size="9" font-weight="bold" fill="#ff0055">PROTECTED CORE</text></g></g></g></svg>
